solid OpenSCAD_Model
  facet normal -1 -0 0
    outer loop
      vertex 0 8.58933 9.95032
      vertex 0 3.74833 3.33333
      vertex 0 4.11933 16.0693
    endloop
  endfacet
  facet normal -1 0 0
    outer loop
      vertex 0 15.2813 3.33333
      vertex 0 10.5583 10.0133
      vertex 0 14.9113 16.0693
    endloop
  endfacet
  facet normal -1 0 0
    outer loop
      vertex 0 14.9113 16.0693
      vertex 0 20 0
      vertex 0 15.2813 3.33333
    endloop
  endfacet
  facet normal -1 0 0
    outer loop
      vertex 0 20 0
      vertex 0 13.3763 3.33333
      vertex 0 15.2813 3.33333
    endloop
  endfacet
  facet normal -1 0 0
    outer loop
      vertex 0 13.3763 3.33333
      vertex 0 5.65433 3.33333
      vertex 0 9.55632 8.90133
    endloop
  endfacet
  facet normal -1 0 0
    outer loop
      vertex 0 0 0
      vertex 0 13.3763 3.33333
      vertex 0 20 0
    endloop
  endfacet
  facet normal -1 -0 0
    outer loop
      vertex 0 13.3763 3.33333
      vertex 0 0 0
      vertex 0 5.65433 3.33333
    endloop
  endfacet
  facet normal -1 -0 0
    outer loop
      vertex 0 5.65433 3.33333
      vertex 0 0 0
      vertex 0 3.74833 3.33333
    endloop
  endfacet
  facet normal -1 0 0
    outer loop
      vertex 0 20 0
      vertex 0 14.9113 16.0693
      vertex 0 20 20
    endloop
  endfacet
  facet normal -1 0 0
    outer loop
      vertex 0 13.0053 16.0693
      vertex 0 20 20
      vertex 0 14.9113 16.0693
    endloop
  endfacet
  facet normal -1 0 0
    outer loop
      vertex 0 6.02433 16.0693
      vertex 0 13.0053 16.0693
      vertex 0 9.56432 11.0703
    endloop
  endfacet
  facet normal -1 0 0
    outer loop
      vertex 0 0 20
      vertex 0 13.0053 16.0693
      vertex 0 6.02433 16.0693
    endloop
  endfacet
  facet normal -1 0 0
    outer loop
      vertex 0 0 20
      vertex 0 6.02433 16.0693
      vertex 0 4.11933 16.0693
    endloop
  endfacet
  facet normal -1 0 0
    outer loop
      vertex 0 0 0
      vertex 0 4.11933 16.0693
      vertex 0 3.74833 3.33333
    endloop
  endfacet
  facet normal -1 0 0
    outer loop
      vertex 0 13.0053 16.0693
      vertex 0 0 20
      vertex 0 20 20
    endloop
  endfacet
  facet normal -1 0 0
    outer loop
      vertex 0 0 20
      vertex 0 4.11933 16.0693
      vertex 0 0 0
    endloop
  endfacet
  facet normal 0 0 1
    outer loop
      vertex 20 20 20
      vertex 14.0533 4.74233 20
      vertex 20 0 20
    endloop
  endfacet
  facet normal 0 0 1
    outer loop
      vertex 13.6293 14.8143 20
      vertex 20 20 20
      vertex 13.6293 16.0693 20
    endloop
  endfacet
  facet normal -0 0 1
    outer loop
      vertex 0 20 20
      vertex 13.6293 16.0693 20
      vertex 20 20 20
    endloop
  endfacet
  facet normal 0 0 1
    outer loop
      vertex 0 20 20
      vertex 4.57932 14.6603 20
      vertex 4.57932 16.0693 20
    endloop
  endfacet
  facet normal 0 0 1
    outer loop
      vertex 0 0 20
      vertex 3.92032 4.62432 20
      vertex 0 20 20
    endloop
  endfacet
  facet normal 0 0 1
    outer loop
      vertex 4.57932 14.6603 20
      vertex 0 20 20
      vertex 3.92032 4.62432 20
    endloop
  endfacet
  facet normal 0 0 1
    outer loop
      vertex 13.6293 16.0693 20
      vertex 0 20 20
      vertex 4.57932 16.0693 20
    endloop
  endfacet
  facet normal -0 0 1
    outer loop
      vertex 14.0533 3.33333 20
      vertex 20 0 20
      vertex 14.0533 4.74233 20
    endloop
  endfacet
  facet normal 0 0 1
    outer loop
      vertex 0 0 20
      vertex 14.0533 3.33333 20
      vertex 3.92032 3.33333 20
    endloop
  endfacet
  facet normal 0 0 1
    outer loop
      vertex 14.0533 3.33333 20
      vertex 0 0 20
      vertex 20 0 20
    endloop
  endfacet
  facet normal 0 0 1
    outer loop
      vertex 3.92032 4.62432 20
      vertex 0 0 20
      vertex 3.92032 3.33333 20
    endloop
  endfacet
  facet normal 0 0 1
    outer loop
      vertex 20 20 20
      vertex 13.6293 14.8143 20
      vertex 14.0533 4.74233 20
    endloop
  endfacet
  facet normal 0 0 1
    outer loop
      vertex 14.0533 4.74233 20
      vertex 13.6293 14.8143 20
      vertex 5.88033 4.74233 20
    endloop
  endfacet
  facet normal 0 0 1
    outer loop
      vertex 11.6693 14.6603 20
      vertex 4.57932 14.6603 20
      vertex 3.92032 4.62432 20
    endloop
  endfacet
  facet normal 1 -0 0
    outer loop
      vertex 20 0 20
      vertex 20 20 0
      vertex 20 20 20
    endloop
  endfacet
  facet normal 1 0 0
    outer loop
      vertex 20 20 0
      vertex 20 0 20
      vertex 20 0 0
    endloop
  endfacet
  facet normal 0 0 -1
    outer loop
      vertex 0 0 0
      vertex 20 20 0
      vertex 20 0 0
    endloop
  endfacet
  facet normal -0 0 -1
    outer loop
      vertex 20 20 0
      vertex 0 0 0
      vertex 0 20 0
    endloop
  endfacet
  facet normal 0 -1 0
    outer loop
      vertex 5.63633 0 16.0693
      vertex 9.51032 0 10.0033
      vertex 13.3673 0 16.0693
    endloop
  endfacet
  facet normal 0 -1 0
    outer loop
      vertex 5.63633 0 16.0693
      vertex 0 0 20
      vertex 3.73932 0 16.0693
    endloop
  endfacet
  facet normal 0 -1 0
    outer loop
      vertex 0 0 0
      vertex 3.73932 0 16.0693
      vertex 0 0 20
    endloop
  endfacet
  facet normal 0 -1 -0
    outer loop
      vertex 3.73932 0 16.0693
      vertex 0 0 0
      vertex 8.63433 0 8.61232
    endloop
  endfacet
  facet normal 0 -1 -0
    outer loop
      vertex 8.63433 0 3.33333
      vertex 0 0 0
      vertex 10.3503 0 3.33333
    endloop
  endfacet
  facet normal 0 -1 -0
    outer loop
      vertex 8.63433 0 8.61232
      vertex 0 0 0
      vertex 8.63433 0 3.33333
    endloop
  endfacet
  facet normal 0 -1 0
    outer loop
      vertex 13.3673 0 16.0693
      vertex 0 0 20
      vertex 5.63633 0 16.0693
    endloop
  endfacet
  facet normal 0 -1 0
    outer loop
      vertex 0 0 20
      vertex 13.3673 0 16.0693
      vertex 20 0 20
    endloop
  endfacet
  facet normal 0 -1 0
    outer loop
      vertex 15.2633 0 16.0693
      vertex 20 0 20
      vertex 13.3673 0 16.0693
    endloop
  endfacet
  facet normal 0 -1 0
    outer loop
      vertex 20 0 0
      vertex 15.2633 0 16.0693
      vertex 10.3503 0 8.61232
    endloop
  endfacet
  facet normal 0 -1 0
    outer loop
      vertex 20 0 0
      vertex 10.3503 0 8.61232
      vertex 10.3503 0 3.33333
    endloop
  endfacet
  facet normal 0 -1 0
    outer loop
      vertex 15.2633 0 16.0693
      vertex 20 0 0
      vertex 20 0 20
    endloop
  endfacet
  facet normal 0 -1 0
    outer loop
      vertex 20 0 0
      vertex 10.3503 0 3.33333
      vertex 0 0 0
    endloop
  endfacet
  facet normal 0 1 -0
    outer loop
      vertex 20 20 0
      vertex 0 20 20
      vertex 20 20 20
    endloop
  endfacet
  facet normal 0 1 0
    outer loop
      vertex 0 20 20
      vertex 20 20 0
      vertex 0 20 0
    endloop
  endfacet
  facet normal -1 0 0
    outer loop
      vertex 0.99 5.65433 3.33333
      vertex 0.99 8.58933 9.95032
      vertex 0.99 9.55632 8.90133
    endloop
  endfacet
  facet normal -1 0 0
    outer loop
      vertex 0.99 8.58933 9.95032
      vertex 0.99 5.65433 3.33333
      vertex 0.99 3.74833 3.33333
    endloop
  endfacet
  facet normal -1 0 0
    outer loop
      vertex 0.99 13.3763 3.33333
      vertex 0.99 10.5583 10.0133
      vertex 0.99 15.2813 3.33333
    endloop
  endfacet
  facet normal -1 0 0
    outer loop
      vertex 0.99 9.55632 8.90133
      vertex 0.99 10.5583 10.0133
      vertex 0.99 13.3763 3.33333
    endloop
  endfacet
  facet normal -1 0 0
    outer loop
      vertex 0.99 8.58933 9.95032
      vertex 0.99 10.5583 10.0133
      vertex 0.99 9.55632 8.90133
    endloop
  endfacet
  facet normal -1 -0 0
    outer loop
      vertex 0.99 10.5583 10.0133
      vertex 0.99 8.58933 9.95032
      vertex 0.99 9.56432 11.0703
    endloop
  endfacet
  facet normal -1 0 0
    outer loop
      vertex 0.99 8.58933 9.95032
      vertex 0.99 6.02433 16.0693
      vertex 0.99 9.56432 11.0703
    endloop
  endfacet
  facet normal -1 -0 -0
    outer loop
      vertex 0.99 6.02433 16.0693
      vertex 0.99 8.58933 9.95032
      vertex 0.99 4.11933 16.0693
    endloop
  endfacet
  facet normal -1 0 0
    outer loop
      vertex 0.99 10.5583 10.0133
      vertex 0.99 13.0053 16.0693
      vertex 0.99 14.9113 16.0693
    endloop
  endfacet
  facet normal -1 0 0
    outer loop
      vertex 0.99 13.0053 16.0693
      vertex 0.99 10.5583 10.0133
      vertex 0.99 9.56432 11.0703
    endloop
  endfacet
  facet normal 0 0.824596 0.565722
    outer loop
      vertex 0.99 13.3763 3.33333
      vertex 0 9.55632 8.90133
      vertex 0.99 9.55632 8.90133
    endloop
  endfacet
  facet normal 0 0.824596 0.565722
    outer loop
      vertex 0 9.55632 8.90133
      vertex 0.99 13.3763 3.33333
      vertex 0 13.3763 3.33333
    endloop
  endfacet
  facet normal -0 0 1
    outer loop
      vertex 0 15.2813 3.33333
      vertex 0.99 13.3763 3.33333
      vertex 0.99 15.2813 3.33333
    endloop
  endfacet
  facet normal 0 0 1
    outer loop
      vertex 0.99 13.3763 3.33333
      vertex 0 15.2813 3.33333
      vertex 0 13.3763 3.33333
    endloop
  endfacet
  facet normal 0 -0.816523 -0.577313
    outer loop
      vertex 0 15.2813 3.33333
      vertex 0.99 10.5583 10.0133
      vertex 0 10.5583 10.0133
    endloop
  endfacet
  facet normal 0 -0.816523 -0.577313
    outer loop
      vertex 0.99 10.5583 10.0133
      vertex 0 15.2813 3.33333
      vertex 0.99 15.2813 3.33333
    endloop
  endfacet
  facet normal 0 -0.811999 0.583658
    outer loop
      vertex 0 10.5583 10.0133
      vertex 0.99 14.9113 16.0693
      vertex 0 14.9113 16.0693
    endloop
  endfacet
  facet normal 0 -0.811999 0.583658
    outer loop
      vertex 0.99 14.9113 16.0693
      vertex 0 10.5583 10.0133
      vertex 0.99 10.5583 10.0133
    endloop
  endfacet
  facet normal 0 0 -1
    outer loop
      vertex 0 13.0053 16.0693
      vertex 0.99 14.9113 16.0693
      vertex 0.99 13.0053 16.0693
    endloop
  endfacet
  facet normal -0 0 -1
    outer loop
      vertex 0.99 14.9113 16.0693
      vertex 0 13.0053 16.0693
      vertex 0 14.9113 16.0693
    endloop
  endfacet
  facet normal 0 0.823721 -0.566995
    outer loop
      vertex 0.99 9.56432 11.0703
      vertex 0 13.0053 16.0693
      vertex 0.99 13.0053 16.0693
    endloop
  endfacet
  facet normal 0 0.823721 -0.566995
    outer loop
      vertex 0 13.0053 16.0693
      vertex 0.99 9.56432 11.0703
      vertex 0 9.56432 11.0703
    endloop
  endfacet
  facet normal 0 -0.816099 -0.577912
    outer loop
      vertex 0 9.56432 11.0703
      vertex 0.99 6.02433 16.0693
      vertex 0 6.02433 16.0693
    endloop
  endfacet
  facet normal 0 -0.816099 -0.577912
    outer loop
      vertex 0.99 6.02433 16.0693
      vertex 0 9.56432 11.0703
      vertex 0.99 9.56432 11.0703
    endloop
  endfacet
  facet normal 0 0 -1
    outer loop
      vertex 0 4.11933 16.0693
      vertex 0.99 6.02433 16.0693
      vertex 0.99 4.11933 16.0693
    endloop
  endfacet
  facet normal -0 0 -1
    outer loop
      vertex 0.99 6.02433 16.0693
      vertex 0 4.11933 16.0693
      vertex 0 6.02433 16.0693
    endloop
  endfacet
  facet normal 0 0.807489 0.589882
    outer loop
      vertex 0.99 8.58933 9.95032
      vertex 0 4.11933 16.0693
      vertex 0.99 4.11933 16.0693
    endloop
  endfacet
  facet normal 0 0.807489 0.589882
    outer loop
      vertex 0 4.11933 16.0693
      vertex 0.99 8.58933 9.95032
      vertex 0 8.58933 9.95032
    endloop
  endfacet
  facet normal 0 0.807071 -0.590454
    outer loop
      vertex 0.99 3.74833 3.33333
      vertex 0 8.58933 9.95032
      vertex 0.99 8.58933 9.95032
    endloop
  endfacet
  facet normal 0 0.807071 -0.590454
    outer loop
      vertex 0 8.58933 9.95032
      vertex 0.99 3.74833 3.33333
      vertex 0 3.74833 3.33333
    endloop
  endfacet
  facet normal -0 0 1
    outer loop
      vertex 0 5.65433 3.33333
      vertex 0.99 3.74833 3.33333
      vertex 0.99 5.65433 3.33333
    endloop
  endfacet
  facet normal 0 0 1
    outer loop
      vertex 0.99 3.74833 3.33333
      vertex 0 5.65433 3.33333
      vertex 0 3.74833 3.33333
    endloop
  endfacet
  facet normal 0 -0.818928 0.573896
    outer loop
      vertex 0 5.65433 3.33333
      vertex 0.99 9.55632 8.90133
      vertex 0 9.55632 8.90133
    endloop
  endfacet
  facet normal 0 -0.818928 0.573896
    outer loop
      vertex 0.99 9.55632 8.90133
      vertex 0 5.65433 3.33333
      vertex 0.99 5.65433 3.33333
    endloop
  endfacet
  facet normal 0 -1 0
    outer loop
      vertex 8.63433 0.99 8.61232
      vertex 5.63633 0.99 16.0693
      vertex 3.73932 0.99 16.0693
    endloop
  endfacet
  facet normal 0 -1 0
    outer loop
      vertex 5.63633 0.99 16.0693
      vertex 8.63433 0.99 8.61232
      vertex 9.51032 0.99 10.0033
    endloop
  endfacet
  facet normal 0 -1 0
    outer loop
      vertex 10.3503 0.99 8.61232
      vertex 13.3673 0.99 16.0693
      vertex 9.51032 0.99 10.0033
    endloop
  endfacet
  facet normal 0 -1 0
    outer loop
      vertex 10.3503 0.99 8.61232
      vertex 9.51032 0.99 10.0033
      vertex 8.63433 0.99 8.61232
    endloop
  endfacet
  facet normal 0 -1 -0
    outer loop
      vertex 13.3673 0.99 16.0693
      vertex 10.3503 0.99 8.61232
      vertex 15.2633 0.99 16.0693
    endloop
  endfacet
  facet normal 0 -1 0
    outer loop
      vertex 8.63433 0.99 3.33333
      vertex 10.3503 0.99 8.61232
      vertex 8.63433 0.99 8.61232
    endloop
  endfacet
  facet normal 0 -1 -0
    outer loop
      vertex 10.3503 0.99 8.61232
      vertex 8.63433 0.99 3.33333
      vertex 10.3503 0.99 3.33333
    endloop
  endfacet
  facet normal -0.835052 0 0.550171
    outer loop
      vertex 10.3503 0 8.61232
      vertex 15.2633 0.99 16.0693
      vertex 10.3503 0.99 8.61232
    endloop
  endfacet
  facet normal -0.835052 0 0.550171
    outer loop
      vertex 15.2633 0.99 16.0693
      vertex 10.3503 0 8.61232
      vertex 15.2633 0 16.0693
    endloop
  endfacet
  facet normal 0 0 -1
    outer loop
      vertex 13.3673 0 16.0693
      vertex 15.2633 0.99 16.0693
      vertex 15.2633 0 16.0693
    endloop
  endfacet
  facet normal -0 0 -1
    outer loop
      vertex 15.2633 0.99 16.0693
      vertex 13.3673 0 16.0693
      vertex 13.3673 0.99 16.0693
    endloop
  endfacet
  facet normal 0.843863 0 -0.536558
    outer loop
      vertex 13.3673 0 16.0693
      vertex 9.51032 0.99 10.0033
      vertex 13.3673 0.99 16.0693
    endloop
  endfacet
  facet normal 0.843863 0 -0.536558
    outer loop
      vertex 9.51032 0.99 10.0033
      vertex 13.3673 0 16.0693
      vertex 9.51032 0 10.0033
    endloop
  endfacet
  facet normal -0.842791 0 -0.53824
    outer loop
      vertex 9.51032 0 10.0033
      vertex 5.63633 0.99 16.0693
      vertex 9.51032 0.99 10.0033
    endloop
  endfacet
  facet normal -0.842791 -0 -0.53824
    outer loop
      vertex 5.63633 0.99 16.0693
      vertex 9.51032 0 10.0033
      vertex 5.63633 0 16.0693
    endloop
  endfacet
  facet normal 0 0 -1
    outer loop
      vertex 3.73932 0 16.0693
      vertex 5.63633 0.99 16.0693
      vertex 5.63633 0 16.0693
    endloop
  endfacet
  facet normal -0 0 -1
    outer loop
      vertex 5.63633 0.99 16.0693
      vertex 3.73932 0 16.0693
      vertex 3.73932 0.99 16.0693
    endloop
  endfacet
  facet normal 0.835978 -0 0.548764
    outer loop
      vertex 3.73932 0 16.0693
      vertex 8.63433 0.99 8.61232
      vertex 3.73932 0.99 16.0693
    endloop
  endfacet
  facet normal 0.835978 0 0.548764
    outer loop
      vertex 8.63433 0.99 8.61232
      vertex 3.73932 0 16.0693
      vertex 8.63433 0 8.61232
    endloop
  endfacet
  facet normal 1 -0 0
    outer loop
      vertex 8.63433 0 8.61232
      vertex 8.63433 0.99 3.33333
      vertex 8.63433 0.99 8.61232
    endloop
  endfacet
  facet normal 1 0 0
    outer loop
      vertex 8.63433 0.99 3.33333
      vertex 8.63433 0 8.61232
      vertex 8.63433 0 3.33333
    endloop
  endfacet
  facet normal -0 0 1
    outer loop
      vertex 8.63433 0.99 3.33333
      vertex 10.3503 0 3.33333
      vertex 10.3503 0.99 3.33333
    endloop
  endfacet
  facet normal 0 0 1
    outer loop
      vertex 10.3503 0 3.33333
      vertex 8.63433 0.99 3.33333
      vertex 8.63433 0 3.33333
    endloop
  endfacet
  facet normal -1 0 0
    outer loop
      vertex 10.3503 0 3.33333
      vertex 10.3503 0.99 8.61232
      vertex 10.3503 0.99 3.33333
    endloop
  endfacet
  facet normal -1 -0 0
    outer loop
      vertex 10.3503 0.99 8.61232
      vertex 10.3503 0 3.33333
      vertex 10.3503 0 8.61232
    endloop
  endfacet
  facet normal 0 0 1
    outer loop
      vertex 13.6293 16.0693 19.01
      vertex 11.6693 14.6603 19.01
      vertex 13.6293 14.8143 19.01
    endloop
  endfacet
  facet normal -0 0 1
    outer loop
      vertex 4.57932 16.0693 19.01
      vertex 11.6693 14.6603 19.01
      vertex 13.6293 16.0693 19.01
    endloop
  endfacet
  facet normal 0 0 1
    outer loop
      vertex 11.6693 14.6603 19.01
      vertex 4.57932 16.0693 19.01
      vertex 4.57932 14.6603 19.01
    endloop
  endfacet
  facet normal -0 0 1
    outer loop
      vertex 11.6693 14.6603 19.01
      vertex 5.88033 4.74233 19.01
      vertex 13.6293 14.8143 19.01
    endloop
  endfacet
  facet normal 0 -0 1
    outer loop
      vertex 5.88033 4.74233 19.01
      vertex 11.6693 14.6603 19.01
      vertex 3.92032 4.62432 19.01
    endloop
  endfacet
  facet normal -0 0 1
    outer loop
      vertex 5.88033 4.74233 19.01
      vertex 14.0533 3.33333 19.01
      vertex 14.0533 4.74233 19.01
    endloop
  endfacet
  facet normal 0 0 1
    outer loop
      vertex 3.92032 3.33333 19.01
      vertex 5.88033 4.74233 19.01
      vertex 3.92032 4.62432 19.01
    endloop
  endfacet
  facet normal 0 0 1
    outer loop
      vertex 5.88033 4.74233 19.01
      vertex 3.92032 3.33333 19.01
      vertex 14.0533 3.33333 19.01
    endloop
  endfacet
  facet normal 0 -1 0
    outer loop
      vertex 5.88033 4.74233 19.01
      vertex 14.0533 4.74233 20
      vertex 5.88033 4.74233 20
    endloop
  endfacet
  facet normal 0 -1 -0
    outer loop
      vertex 14.0533 4.74233 20
      vertex 5.88033 4.74233 19.01
      vertex 14.0533 4.74233 19.01
    endloop
  endfacet
  facet normal -0.792575 0.609775 0
    outer loop
      vertex 5.88033 4.74233 19.01
      vertex 13.6293 14.8143 20
      vertex 13.6293 14.8143 19.01
    endloop
  endfacet
  facet normal -0.792575 0.609775 0
    outer loop
      vertex 13.6293 14.8143 20
      vertex 5.88033 4.74233 19.01
      vertex 5.88033 4.74233 20
    endloop
  endfacet
  facet normal -1 0 0
    outer loop
      vertex 13.6293 14.8143 19.01
      vertex 13.6293 16.0693 20
      vertex 13.6293 16.0693 19.01
    endloop
  endfacet
  facet normal -1 -0 0
    outer loop
      vertex 13.6293 16.0693 20
      vertex 13.6293 14.8143 19.01
      vertex 13.6293 14.8143 20
    endloop
  endfacet
  facet normal 0 -1 0
    outer loop
      vertex 4.57932 16.0693 19.01
      vertex 13.6293 16.0693 20
      vertex 4.57932 16.0693 20
    endloop
  endfacet
  facet normal 0 -1 -0
    outer loop
      vertex 13.6293 16.0693 20
      vertex 4.57932 16.0693 19.01
      vertex 13.6293 16.0693 19.01
    endloop
  endfacet
  facet normal 1 -0 0
    outer loop
      vertex 4.57932 14.6603 20
      vertex 4.57932 16.0693 19.01
      vertex 4.57932 16.0693 20
    endloop
  endfacet
  facet normal 1 0 0
    outer loop
      vertex 4.57932 16.0693 19.01
      vertex 4.57932 14.6603 20
      vertex 4.57932 14.6603 19.01
    endloop
  endfacet
  facet normal 0 1 -0
    outer loop
      vertex 11.6693 14.6603 19.01
      vertex 4.57932 14.6603 20
      vertex 11.6693 14.6603 20
    endloop
  endfacet
  facet normal 0 1 0
    outer loop
      vertex 4.57932 14.6603 20
      vertex 11.6693 14.6603 19.01
      vertex 4.57932 14.6603 19.01
    endloop
  endfacet
  facet normal 0.791518 -0.611146 0
    outer loop
      vertex 3.92032 4.62432 20
      vertex 11.6693 14.6603 19.01
      vertex 11.6693 14.6603 20
    endloop
  endfacet
  facet normal 0.791518 -0.611146 0
    outer loop
      vertex 11.6693 14.6603 19.01
      vertex 3.92032 4.62432 20
      vertex 3.92032 4.62432 19.01
    endloop
  endfacet
  facet normal 1 -0 0
    outer loop
      vertex 3.92032 3.33333 20
      vertex 3.92032 4.62432 19.01
      vertex 3.92032 4.62432 20
    endloop
  endfacet
  facet normal 1 0 0
    outer loop
      vertex 3.92032 4.62432 19.01
      vertex 3.92032 3.33333 20
      vertex 3.92032 3.33333 19.01
    endloop
  endfacet
  facet normal 0 1 -0
    outer loop
      vertex 14.0533 3.33333 19.01
      vertex 3.92032 3.33333 20
      vertex 14.0533 3.33333 20
    endloop
  endfacet
  facet normal 0 1 0
    outer loop
      vertex 3.92032 3.33333 20
      vertex 14.0533 3.33333 19.01
      vertex 3.92032 3.33333 19.01
    endloop
  endfacet
  facet normal -1 0 0
    outer loop
      vertex 14.0533 3.33333 19.01
      vertex 14.0533 4.74233 20
      vertex 14.0533 4.74233 19.01
    endloop
  endfacet
  facet normal -1 -0 0
    outer loop
      vertex 14.0533 4.74233 20
      vertex 14.0533 3.33333 19.01
      vertex 14.0533 3.33333 20
    endloop
  endfacet
endsolid OpenSCAD_Model
