solid OpenSCAD_Model
  facet normal -1 -0 0
    outer loop
      vertex 0 25.787 29.85
      vertex 0 11.248 10
      vertex 0 12.36 48.208
    endloop
  endfacet
  facet normal -1 0 0
    outer loop
      vertex 0 45.886 10
      vertex 0 31.7 30.04
      vertex 0 44.774 48.208
    endloop
  endfacet
  facet normal -1 0 0
    outer loop
      vertex 0 44.774 48.208
      vertex 0 60 0
      vertex 0 45.886 10
    endloop
  endfacet
  facet normal -1 0 0
    outer loop
      vertex 0 60 0
      vertex 0 40.163 10
      vertex 0 45.886 10
    endloop
  endfacet
  facet normal -1 0 0
    outer loop
      vertex 0 40.163 10
      vertex 0 16.971 10
      vertex 0 28.689 26.704
    endloop
  endfacet
  facet normal -1 0 0
    outer loop
      vertex 0 0 0
      vertex 0 40.163 10
      vertex 0 60 0
    endloop
  endfacet
  facet normal -1 -0 0
    outer loop
      vertex 0 40.163 10
      vertex 0 0 0
      vertex 0 16.971 10
    endloop
  endfacet
  facet normal -1 -0 0
    outer loop
      vertex 0 16.971 10
      vertex 0 0 0
      vertex 0 11.248 10
    endloop
  endfacet
  facet normal -1 0 0
    outer loop
      vertex 0 60 0
      vertex 0 44.774 48.208
      vertex 0 60 60
    endloop
  endfacet
  facet normal -1 0 0
    outer loop
      vertex 0 39.051 48.208
      vertex 0 60 60
      vertex 0 44.774 48.208
    endloop
  endfacet
  facet normal -1 0 0
    outer loop
      vertex 0 18.083 48.208
      vertex 0 39.051 48.208
      vertex 0 28.716 33.212
    endloop
  endfacet
  facet normal -1 0 0
    outer loop
      vertex 0 0 60
      vertex 0 39.051 48.208
      vertex 0 18.083 48.208
    endloop
  endfacet
  facet normal -1 0 0
    outer loop
      vertex 0 0 60
      vertex 0 18.083 48.208
      vertex 0 12.36 48.208
    endloop
  endfacet
  facet normal -1 0 0
    outer loop
      vertex 0 0 0
      vertex 0 12.36 48.208
      vertex 0 11.248 10
    endloop
  endfacet
  facet normal -1 0 0
    outer loop
      vertex 0 39.051 48.208
      vertex 0 0 60
      vertex 0 60 60
    endloop
  endfacet
  facet normal -1 0 0
    outer loop
      vertex 0 0 60
      vertex 0 12.36 48.208
      vertex 0 0 0
    endloop
  endfacet
  facet normal 0 0 1
    outer loop
      vertex 60 60 60
      vertex 42.197 14.232 60
      vertex 60 0 60
    endloop
  endfacet
  facet normal 0 0 1
    outer loop
      vertex 40.923 44.437 60
      vertex 60 60 60
      vertex 40.923 48.208 60
    endloop
  endfacet
  facet normal -0 0 1
    outer loop
      vertex 0 60 60
      vertex 40.923 48.208 60
      vertex 60 60 60
    endloop
  endfacet
  facet normal 0 0 1
    outer loop
      vertex 0 60 60
      vertex 13.743 43.976 60
      vertex 13.743 48.208 60
    endloop
  endfacet
  facet normal 0 0 1
    outer loop
      vertex 0 0 60
      vertex 11.763 13.879 60
      vertex 0 60 60
    endloop
  endfacet
  facet normal 0 0 1
    outer loop
      vertex 13.743 43.976 60
      vertex 0 60 60
      vertex 11.763 13.879 60
    endloop
  endfacet
  facet normal 0 0 1
    outer loop
      vertex 40.923 48.208 60
      vertex 0 60 60
      vertex 13.743 48.208 60
    endloop
  endfacet
  facet normal -0 0 1
    outer loop
      vertex 42.197 10 60
      vertex 60 0 60
      vertex 42.197 14.232 60
    endloop
  endfacet
  facet normal 0 0 1
    outer loop
      vertex 0 0 60
      vertex 42.197 10 60
      vertex 11.763 10 60
    endloop
  endfacet
  facet normal 0 0 1
    outer loop
      vertex 42.197 10 60
      vertex 0 0 60
      vertex 60 0 60
    endloop
  endfacet
  facet normal 0 0 1
    outer loop
      vertex 11.763 13.879 60
      vertex 0 0 60
      vertex 11.763 10 60
    endloop
  endfacet
  facet normal 0 0 1
    outer loop
      vertex 60 60 60
      vertex 40.923 44.437 60
      vertex 42.197 14.232 60
    endloop
  endfacet
  facet normal 0 0 1
    outer loop
      vertex 42.197 14.232 60
      vertex 40.923 44.437 60
      vertex 17.649 14.232 60
    endloop
  endfacet
  facet normal 0 0 1
    outer loop
      vertex 35.036 43.976 60
      vertex 13.743 43.976 60
      vertex 11.763 13.879 60
    endloop
  endfacet
  facet normal 1 -0 0
    outer loop
      vertex 60 0 60
      vertex 60 60 0
      vertex 60 60 60
    endloop
  endfacet
  facet normal 1 0 0
    outer loop
      vertex 60 60 0
      vertex 60 0 60
      vertex 60 0 0
    endloop
  endfacet
  facet normal 0 0 -1
    outer loop
      vertex 0 0 0
      vertex 60 60 0
      vertex 60 0 0
    endloop
  endfacet
  facet normal -0 0 -1
    outer loop
      vertex 60 60 0
      vertex 0 0 0
      vertex 0 60 0
    endloop
  endfacet
  facet normal 0 -1 0
    outer loop
      vertex 16.917 0 48.208
      vertex 28.554 0 30.013
      vertex 40.136 0 48.208
    endloop
  endfacet
  facet normal 0 -1 0
    outer loop
      vertex 16.917 0 48.208
      vertex 0 0 60
      vertex 11.221 0 48.208
    endloop
  endfacet
  facet normal 0 -1 0
    outer loop
      vertex 0 0 0
      vertex 11.221 0 48.208
      vertex 0 0 60
    endloop
  endfacet
  facet normal 0 -1 -0
    outer loop
      vertex 11.221 0 48.208
      vertex 0 0 0
      vertex 25.922 0 25.836
    endloop
  endfacet
  facet normal 0 -1 -0
    outer loop
      vertex 25.922 0 10
      vertex 0 0 0
      vertex 31.076 0 10
    endloop
  endfacet
  facet normal 0 -1 -0
    outer loop
      vertex 25.922 0 25.836
      vertex 0 0 0
      vertex 25.922 0 10
    endloop
  endfacet
  facet normal 0 -1 0
    outer loop
      vertex 40.136 0 48.208
      vertex 0 0 60
      vertex 16.917 0 48.208
    endloop
  endfacet
  facet normal 0 -1 0
    outer loop
      vertex 0 0 60
      vertex 40.136 0 48.208
      vertex 60 0 60
    endloop
  endfacet
  facet normal 0 -1 0
    outer loop
      vertex 45.832 0 48.208
      vertex 60 0 60
      vertex 40.136 0 48.208
    endloop
  endfacet
  facet normal 0 -1 0
    outer loop
      vertex 60 0 0
      vertex 45.832 0 48.208
      vertex 31.076 0 25.836
    endloop
  endfacet
  facet normal 0 -1 0
    outer loop
      vertex 60 0 0
      vertex 31.076 0 25.836
      vertex 31.076 0 10
    endloop
  endfacet
  facet normal 0 -1 0
    outer loop
      vertex 45.832 0 48.208
      vertex 60 0 0
      vertex 60 0 60
    endloop
  endfacet
  facet normal 0 -1 0
    outer loop
      vertex 60 0 0
      vertex 31.076 0 10
      vertex 0 0 0
    endloop
  endfacet
  facet normal 0 1 -0
    outer loop
      vertex 60 60 0
      vertex 0 60 60
      vertex 60 60 60
    endloop
  endfacet
  facet normal 0 1 0
    outer loop
      vertex 0 60 60
      vertex 60 60 0
      vertex 0 60 0
    endloop
  endfacet
  facet normal -1 0 0
    outer loop
      vertex 0.99 16.971 10
      vertex 0.99 25.787 29.85
      vertex 0.99 28.689 26.704
    endloop
  endfacet
  facet normal -1 0 0
    outer loop
      vertex 0.99 25.787 29.85
      vertex 0.99 16.971 10
      vertex 0.99 11.248 10
    endloop
  endfacet
  facet normal -1 0 0
    outer loop
      vertex 0.99 40.163 10
      vertex 0.99 31.7 30.04
      vertex 0.99 45.886 10
    endloop
  endfacet
  facet normal -1 0 0
    outer loop
      vertex 0.99 28.689 26.704
      vertex 0.99 31.7 30.04
      vertex 0.99 40.163 10
    endloop
  endfacet
  facet normal -1 0 0
    outer loop
      vertex 0.99 25.787 29.85
      vertex 0.99 31.7 30.04
      vertex 0.99 28.689 26.704
    endloop
  endfacet
  facet normal -1 -0 0
    outer loop
      vertex 0.99 31.7 30.04
      vertex 0.99 25.787 29.85
      vertex 0.99 28.716 33.212
    endloop
  endfacet
  facet normal -1 0 0
    outer loop
      vertex 0.99 25.787 29.85
      vertex 0.99 18.083 48.208
      vertex 0.99 28.716 33.212
    endloop
  endfacet
  facet normal -1 -0 -0
    outer loop
      vertex 0.99 18.083 48.208
      vertex 0.99 25.787 29.85
      vertex 0.99 12.36 48.208
    endloop
  endfacet
  facet normal -1 0 0
    outer loop
      vertex 0.99 31.7 30.04
      vertex 0.99 39.051 48.208
      vertex 0.99 44.774 48.208
    endloop
  endfacet
  facet normal -1 0 0
    outer loop
      vertex 0.99 39.051 48.208
      vertex 0.99 31.7 30.04
      vertex 0.99 28.716 33.212
    endloop
  endfacet
  facet normal 0 0.824272 0.566194
    outer loop
      vertex 0.99 40.163 10
      vertex 0 28.689 26.704
      vertex 0.99 28.689 26.704
    endloop
  endfacet
  facet normal 0 0.824272 0.566194
    outer loop
      vertex 0 28.689 26.704
      vertex 0.99 40.163 10
      vertex 0 40.163 10
    endloop
  endfacet
  facet normal -0 0 1
    outer loop
      vertex 0 45.886 10
      vertex 0.99 40.163 10
      vertex 0.99 45.886 10
    endloop
  endfacet
  facet normal 0 0 1
    outer loop
      vertex 0.99 40.163 10
      vertex 0 45.886 10
      vertex 0 40.163 10
    endloop
  endfacet
  facet normal 0 -0.816197 -0.577773
    outer loop
      vertex 0 45.886 10
      vertex 0.99 31.7 30.04
      vertex 0 31.7 30.04
    endloop
  endfacet
  facet normal 0 -0.816197 -0.577773
    outer loop
      vertex 0.99 31.7 30.04
      vertex 0 45.886 10
      vertex 0.99 45.886 10
    endloop
  endfacet
  facet normal 0 -0.811682 0.5841
    outer loop
      vertex 0 31.7 30.04
      vertex 0.99 44.774 48.208
      vertex 0 44.774 48.208
    endloop
  endfacet
  facet normal 0 -0.811682 0.5841
    outer loop
      vertex 0.99 44.774 48.208
      vertex 0 31.7 30.04
      vertex 0.99 31.7 30.04
    endloop
  endfacet
  facet normal 0 0 -1
    outer loop
      vertex 0 39.051 48.208
      vertex 0.99 44.774 48.208
      vertex 0.99 39.051 48.208
    endloop
  endfacet
  facet normal -0 0 -1
    outer loop
      vertex 0.99 44.774 48.208
      vertex 0 39.051 48.208
      vertex 0 44.774 48.208
    endloop
  endfacet
  facet normal 0 0.823394 -0.56747
    outer loop
      vertex 0.99 28.716 33.212
      vertex 0 39.051 48.208
      vertex 0.99 39.051 48.208
    endloop
  endfacet
  facet normal 0 0.823394 -0.56747
    outer loop
      vertex 0 39.051 48.208
      vertex 0.99 28.716 33.212
      vertex 0 28.716 33.212
    endloop
  endfacet
  facet normal 0 -0.815746 -0.57841
    outer loop
      vertex 0 28.716 33.212
      vertex 0.99 18.083 48.208
      vertex 0 18.083 48.208
    endloop
  endfacet
  facet normal 0 -0.815746 -0.57841
    outer loop
      vertex 0.99 18.083 48.208
      vertex 0 28.716 33.212
      vertex 0.99 28.716 33.212
    endloop
  endfacet
  facet normal 0 0 -1
    outer loop
      vertex 0 12.36 48.208
      vertex 0.99 18.083 48.208
      vertex 0.99 12.36 48.208
    endloop
  endfacet
  facet normal -0 0 -1
    outer loop
      vertex 0.99 18.083 48.208
      vertex 0 12.36 48.208
      vertex 0 18.083 48.208
    endloop
  endfacet
  facet normal 0 0.807149 0.590347
    outer loop
      vertex 0.99 25.787 29.85
      vertex 0 12.36 48.208
      vertex 0.99 12.36 48.208
    endloop
  endfacet
  facet normal 0 0.807149 0.590347
    outer loop
      vertex 0 12.36 48.208
      vertex 0.99 25.787 29.85
      vertex 0 25.787 29.85
    endloop
  endfacet
  facet normal 0 0.806747 -0.590897
    outer loop
      vertex 0.99 11.248 10
      vertex 0 25.787 29.85
      vertex 0.99 25.787 29.85
    endloop
  endfacet
  facet normal 0 0.806747 -0.590897
    outer loop
      vertex 0 25.787 29.85
      vertex 0.99 11.248 10
      vertex 0 11.248 10
    endloop
  endfacet
  facet normal -0 0 1
    outer loop
      vertex 0 16.971 10
      vertex 0.99 11.248 10
      vertex 0.99 16.971 10
    endloop
  endfacet
  facet normal 0 0 1
    outer loop
      vertex 0.99 11.248 10
      vertex 0 16.971 10
      vertex 0 11.248 10
    endloop
  endfacet
  facet normal 0 -0.818651 0.574291
    outer loop
      vertex 0 16.971 10
      vertex 0.99 28.689 26.704
      vertex 0 28.689 26.704
    endloop
  endfacet
  facet normal 0 -0.818651 0.574291
    outer loop
      vertex 0.99 28.689 26.704
      vertex 0 16.971 10
      vertex 0.99 16.971 10
    endloop
  endfacet
  facet normal 0 -1 0
    outer loop
      vertex 25.922 0.99 25.836
      vertex 16.917 0.99 48.208
      vertex 11.221 0.99 48.208
    endloop
  endfacet
  facet normal 0 -1 0
    outer loop
      vertex 16.917 0.99 48.208
      vertex 25.922 0.99 25.836
      vertex 28.554 0.99 30.013
    endloop
  endfacet
  facet normal 0 -1 0
    outer loop
      vertex 31.076 0.99 25.836
      vertex 40.136 0.99 48.208
      vertex 28.554 0.99 30.013
    endloop
  endfacet
  facet normal 0 -1 0
    outer loop
      vertex 31.076 0.99 25.836
      vertex 28.554 0.99 30.013
      vertex 25.922 0.99 25.836
    endloop
  endfacet
  facet normal 0 -1 -0
    outer loop
      vertex 40.136 0.99 48.208
      vertex 31.076 0.99 25.836
      vertex 45.832 0.99 48.208
    endloop
  endfacet
  facet normal 0 -1 0
    outer loop
      vertex 25.922 0.99 10
      vertex 31.076 0.99 25.836
      vertex 25.922 0.99 25.836
    endloop
  endfacet
  facet normal 0 -1 -0
    outer loop
      vertex 31.076 0.99 25.836
      vertex 25.922 0.99 10
      vertex 31.076 0.99 10
    endloop
  endfacet
  facet normal -0.834773 0 0.550595
    outer loop
      vertex 31.076 0 25.836
      vertex 45.832 0.99 48.208
      vertex 31.076 0.99 25.836
    endloop
  endfacet
  facet normal -0.834773 0 0.550595
    outer loop
      vertex 45.832 0.99 48.208
      vertex 31.076 0 25.836
      vertex 45.832 0 48.208
    endloop
  endfacet
  facet normal 0 0 -1
    outer loop
      vertex 40.136 0 48.208
      vertex 45.832 0.99 48.208
      vertex 45.832 0 48.208
    endloop
  endfacet
  facet normal -0 0 -1
    outer loop
      vertex 45.832 0.99 48.208
      vertex 40.136 0 48.208
      vertex 40.136 0.99 48.208
    endloop
  endfacet
  facet normal 0.843591 0 -0.536986
    outer loop
      vertex 40.136 0 48.208
      vertex 28.554 0.99 30.013
      vertex 40.136 0.99 48.208
    endloop
  endfacet
  facet normal 0.843591 0 -0.536986
    outer loop
      vertex 28.554 0.99 30.013
      vertex 40.136 0 48.208
      vertex 28.554 0 30.013
    endloop
  endfacet
  facet normal -0.842435 0 -0.538797
    outer loop
      vertex 28.554 0 30.013
      vertex 16.917 0.99 48.208
      vertex 28.554 0.99 30.013
    endloop
  endfacet
  facet normal -0.842435 -0 -0.538797
    outer loop
      vertex 16.917 0.99 48.208
      vertex 28.554 0 30.013
      vertex 16.917 0 48.208
    endloop
  endfacet
  facet normal 0 0 -1
    outer loop
      vertex 11.221 0 48.208
      vertex 16.917 0.99 48.208
      vertex 16.917 0 48.208
    endloop
  endfacet
  facet normal -0 0 -1
    outer loop
      vertex 16.917 0.99 48.208
      vertex 11.221 0 48.208
      vertex 11.221 0.99 48.208
    endloop
  endfacet
  facet normal 0.835716 -0 0.549162
    outer loop
      vertex 11.221 0 48.208
      vertex 25.922 0.99 25.836
      vertex 11.221 0.99 48.208
    endloop
  endfacet
  facet normal 0.835716 0 0.549162
    outer loop
      vertex 25.922 0.99 25.836
      vertex 11.221 0 48.208
      vertex 25.922 0 25.836
    endloop
  endfacet
  facet normal 1 -0 0
    outer loop
      vertex 25.922 0 25.836
      vertex 25.922 0.99 10
      vertex 25.922 0.99 25.836
    endloop
  endfacet
  facet normal 1 0 0
    outer loop
      vertex 25.922 0.99 10
      vertex 25.922 0 25.836
      vertex 25.922 0 10
    endloop
  endfacet
  facet normal -0 0 1
    outer loop
      vertex 25.922 0.99 10
      vertex 31.076 0 10
      vertex 31.076 0.99 10
    endloop
  endfacet
  facet normal 0 0 1
    outer loop
      vertex 31.076 0 10
      vertex 25.922 0.99 10
      vertex 25.922 0 10
    endloop
  endfacet
  facet normal -1 0 0
    outer loop
      vertex 31.076 0 10
      vertex 31.076 0.99 25.836
      vertex 31.076 0.99 10
    endloop
  endfacet
  facet normal -1 -0 0
    outer loop
      vertex 31.076 0.99 25.836
      vertex 31.076 0 10
      vertex 31.076 0 25.836
    endloop
  endfacet
  facet normal 0 0 1
    outer loop
      vertex 40.923 48.208 59.01
      vertex 35.036 43.976 59.01
      vertex 40.923 44.437 59.01
    endloop
  endfacet
  facet normal -0 0 1
    outer loop
      vertex 13.743 48.208 59.01
      vertex 35.036 43.976 59.01
      vertex 40.923 48.208 59.01
    endloop
  endfacet
  facet normal 0 0 1
    outer loop
      vertex 35.036 43.976 59.01
      vertex 13.743 48.208 59.01
      vertex 13.743 43.976 59.01
    endloop
  endfacet
  facet normal -0 0 1
    outer loop
      vertex 35.036 43.976 59.01
      vertex 17.649 14.232 59.01
      vertex 40.923 44.437 59.01
    endloop
  endfacet
  facet normal 0 -0 1
    outer loop
      vertex 17.649 14.232 59.01
      vertex 35.036 43.976 59.01
      vertex 11.763 13.879 59.01
    endloop
  endfacet
  facet normal -0 0 1
    outer loop
      vertex 17.649 14.232 59.01
      vertex 42.197 10 59.01
      vertex 42.197 14.232 59.01
    endloop
  endfacet
  facet normal 0 0 1
    outer loop
      vertex 11.763 10 59.01
      vertex 17.649 14.232 59.01
      vertex 11.763 13.879 59.01
    endloop
  endfacet
  facet normal 0 0 1
    outer loop
      vertex 17.649 14.232 59.01
      vertex 11.763 10 59.01
      vertex 42.197 10 59.01
    endloop
  endfacet
  facet normal 0 -1 0
    outer loop
      vertex 17.649 14.232 59.01
      vertex 42.197 14.232 60
      vertex 17.649 14.232 60
    endloop
  endfacet
  facet normal 0 -1 -0
    outer loop
      vertex 42.197 14.232 60
      vertex 17.649 14.232 59.01
      vertex 42.197 14.232 59.01
    endloop
  endfacet
  facet normal -0.792125 0.610359 0
    outer loop
      vertex 17.649 14.232 59.01
      vertex 40.923 44.437 60
      vertex 40.923 44.437 59.01
    endloop
  endfacet
  facet normal -0.792125 0.610359 0
    outer loop
      vertex 40.923 44.437 60
      vertex 17.649 14.232 59.01
      vertex 17.649 14.232 60
    endloop
  endfacet
  facet normal -1 0 0
    outer loop
      vertex 40.923 44.437 59.01
      vertex 40.923 48.208 60
      vertex 40.923 48.208 59.01
    endloop
  endfacet
  facet normal -1 -0 0
    outer loop
      vertex 40.923 48.208 60
      vertex 40.923 44.437 59.01
      vertex 40.923 44.437 60
    endloop
  endfacet
  facet normal 0 -1 0
    outer loop
      vertex 13.743 48.208 59.01
      vertex 40.923 48.208 60
      vertex 13.743 48.208 60
    endloop
  endfacet
  facet normal 0 -1 -0
    outer loop
      vertex 40.923 48.208 60
      vertex 13.743 48.208 59.01
      vertex 40.923 48.208 59.01
    endloop
  endfacet
  facet normal 1 -0 0
    outer loop
      vertex 13.743 43.976 60
      vertex 13.743 48.208 59.01
      vertex 13.743 48.208 60
    endloop
  endfacet
  facet normal 1 0 0
    outer loop
      vertex 13.743 48.208 59.01
      vertex 13.743 43.976 60
      vertex 13.743 43.976 59.01
    endloop
  endfacet
  facet normal 0 1 -0
    outer loop
      vertex 35.036 43.976 59.01
      vertex 13.743 43.976 60
      vertex 35.036 43.976 60
    endloop
  endfacet
  facet normal 0 1 0
    outer loop
      vertex 13.743 43.976 60
      vertex 35.036 43.976 59.01
      vertex 13.743 43.976 59.01
    endloop
  endfacet
  facet normal 0.791079 -0.611715 0
    outer loop
      vertex 11.763 13.879 60
      vertex 35.036 43.976 59.01
      vertex 35.036 43.976 60
    endloop
  endfacet
  facet normal 0.791079 -0.611715 0
    outer loop
      vertex 35.036 43.976 59.01
      vertex 11.763 13.879 60
      vertex 11.763 13.879 59.01
    endloop
  endfacet
  facet normal 1 -0 0
    outer loop
      vertex 11.763 10 60
      vertex 11.763 13.879 59.01
      vertex 11.763 13.879 60
    endloop
  endfacet
  facet normal 1 0 0
    outer loop
      vertex 11.763 13.879 59.01
      vertex 11.763 10 60
      vertex 11.763 10 59.01
    endloop
  endfacet
  facet normal 0 1 -0
    outer loop
      vertex 42.197 10 59.01
      vertex 11.763 10 60
      vertex 42.197 10 60
    endloop
  endfacet
  facet normal 0 1 0
    outer loop
      vertex 11.763 10 60
      vertex 42.197 10 59.01
      vertex 11.763 10 59.01
    endloop
  endfacet
  facet normal -1 0 0
    outer loop
      vertex 42.197 10 59.01
      vertex 42.197 14.232 60
      vertex 42.197 14.232 59.01
    endloop
  endfacet
  facet normal -1 -0 0
    outer loop
      vertex 42.197 14.232 60
      vertex 42.197 10 59.01
      vertex 42.197 10 60
    endloop
  endfacet
endsolid OpenSCAD_Model
